<svg width="256" height="256" viewBox="0 0 256 256" fill="none" xmlns="http://www.w3.org/2000/svg">
<rect width="256" height="256" fill="white"/>
<path d="M166.4 168.192L181.376 92.16C191.488 86.656 198.4 76.16 198.4 64C198.4 55.5131 195.029 47.3737 189.027 41.3726C183.026 35.3714 174.887 32 166.4 32C157.913 32 149.774 35.3714 143.773 41.3726C137.771 47.3737 134.4 55.5131 134.4 64C134.4 76.16 141.312 86.656 151.424 92.16L166.4 168.192ZM166.4 44.8C177.024 44.8 185.6 53.376 185.6 64C185.6 74.624 177.024 83.2 166.4 83.2C155.776 83.2 147.2 74.624 147.2 64C147.2 53.376 155.776 44.8 166.4 44.8ZM188.416 106.24L230.4 89.216V204.416L167.936 230.4L89.6 204.416L25.6 230.016V114.816L89.6 89.216L144.256 107.264L166.4 200.704L188.416 106.24Z" fill="#626262"/>
</svg>
